<mxfile host="app.diagrams.net" modified="2020-12-30T02:30:37.899Z" agent="5.0 (Windows NT 10.0; Win64; x64) AppleWebKit/537.36 (KHTML, like Gecko) Chrome/87.0.4280.88 Safari/537.36" etag="At8SkSQEk1No-Mw2wsOx" version="14.1.2" type="github">
  <diagram id="nSNWQb373YcmUC696S4G" name="第 1 页">
    <mxGraphModel dx="1422" dy="794" grid="0" gridSize="10" guides="1" tooltips="1" connect="1" arrows="1" fold="1" page="1" pageScale="1" pageWidth="827" pageHeight="1169" math="0" shadow="0">
      <root>
        <mxCell id="0" />
        <mxCell id="1" parent="0" />
        <mxCell id="kr2dUUyB6yCCj8srhbKk-18" value="" style="edgeStyle=orthogonalEdgeStyle;rounded=0;orthogonalLoop=1;jettySize=auto;html=1;" parent="1" source="kr2dUUyB6yCCj8srhbKk-16" target="kr2dUUyB6yCCj8srhbKk-14" edge="1">
          <mxGeometry relative="1" as="geometry" />
        </mxCell>
        <mxCell id="kr2dUUyB6yCCj8srhbKk-16" value="" style="rounded=1;whiteSpace=wrap;html=1;absoluteArcSize=1;arcSize=14;strokeWidth=2;" parent="1" vertex="1">
          <mxGeometry x="204" y="806" width="391" height="110" as="geometry" />
        </mxCell>
        <mxCell id="kr2dUUyB6yCCj8srhbKk-1" value="飞云系统" style="ellipse;shape=cloud;whiteSpace=wrap;html=1;" parent="1" vertex="1">
          <mxGeometry x="119" y="9" width="120" height="80" as="geometry" />
        </mxCell>
        <mxCell id="kr2dUUyB6yCCj8srhbKk-2" value="代码检测后端" style="ellipse;shape=cloud;whiteSpace=wrap;html=1;" parent="1" vertex="1">
          <mxGeometry x="229" y="109" width="370" height="230" as="geometry" />
        </mxCell>
        <mxCell id="kr2dUUyB6yCCj8srhbKk-3" value="" style="ellipse;shape=cloud;whiteSpace=wrap;html=1;" parent="1" vertex="1">
          <mxGeometry x="89" y="409" width="240" height="170" as="geometry" />
        </mxCell>
        <mxCell id="kr2dUUyB6yCCj8srhbKk-4" value="代码检测插件" style="rounded=1;whiteSpace=wrap;html=1;" parent="1" vertex="1">
          <mxGeometry x="209" y="459" width="80" height="30" as="geometry" />
        </mxCell>
        <mxCell id="kr2dUUyB6yCCj8srhbKk-5" value="" style="shape=flexArrow;endArrow=classic;startArrow=classic;html=1;exitX=0.25;exitY=0.25;exitDx=0;exitDy=0;exitPerimeter=0;" parent="1" source="kr2dUUyB6yCCj8srhbKk-2" target="kr2dUUyB6yCCj8srhbKk-1" edge="1">
          <mxGeometry width="50" height="50" relative="1" as="geometry">
            <mxPoint x="229" y="139" as="sourcePoint" />
            <mxPoint x="279" y="89" as="targetPoint" />
          </mxGeometry>
        </mxCell>
        <mxCell id="kr2dUUyB6yCCj8srhbKk-6" value="检测结果信息" style="edgeLabel;html=1;align=center;verticalAlign=middle;resizable=0;points=[];" parent="kr2dUUyB6yCCj8srhbKk-5" vertex="1" connectable="0">
          <mxGeometry x="0.0865" y="-9" relative="1" as="geometry">
            <mxPoint y="1" as="offset" />
          </mxGeometry>
        </mxCell>
        <mxCell id="kr2dUUyB6yCCj8srhbKk-7" value="IDEA客户端" style="text;html=1;strokeColor=none;fillColor=none;align=center;verticalAlign=middle;whiteSpace=wrap;rounded=0;" parent="1" vertex="1">
          <mxGeometry x="149" y="509" width="90" height="30" as="geometry" />
        </mxCell>
        <mxCell id="kr2dUUyB6yCCj8srhbKk-8" value="检测结果信息" style="shape=flexArrow;endArrow=classic;html=1;exitX=0.792;exitY=0.182;exitDx=0;exitDy=0;exitPerimeter=0;width=13;endSize=7.62;entryX=0.449;entryY=0.926;entryDx=0;entryDy=0;entryPerimeter=0;" parent="1" source="kr2dUUyB6yCCj8srhbKk-3" target="kr2dUUyB6yCCj8srhbKk-2" edge="1">
          <mxGeometry width="50" height="50" relative="1" as="geometry">
            <mxPoint x="289" y="399" as="sourcePoint" />
            <mxPoint x="339" y="349" as="targetPoint" />
          </mxGeometry>
        </mxCell>
        <mxCell id="kr2dUUyB6yCCj8srhbKk-17" value="" style="edgeStyle=orthogonalEdgeStyle;rounded=0;orthogonalLoop=1;jettySize=auto;html=1;" parent="1" source="kr2dUUyB6yCCj8srhbKk-9" target="kr2dUUyB6yCCj8srhbKk-16" edge="1">
          <mxGeometry relative="1" as="geometry" />
        </mxCell>
        <mxCell id="kr2dUUyB6yCCj8srhbKk-9" value="开始commit" style="strokeWidth=2;html=1;shape=mxgraph.flowchart.start_1;whiteSpace=wrap;" parent="1" vertex="1">
          <mxGeometry x="349.5" y="688" width="100" height="60" as="geometry" />
        </mxCell>
        <mxCell id="kr2dUUyB6yCCj8srhbKk-10" value="飞云插件&lt;br&gt;同步任务信息" style="whiteSpace=wrap;html=1;strokeWidth=2;" parent="1" vertex="1">
          <mxGeometry x="243" y="831" width="120" height="60" as="geometry" />
        </mxCell>
        <mxCell id="kr2dUUyB6yCCj8srhbKk-12" value="代码检测&lt;br&gt;结果上报" style="whiteSpace=wrap;html=1;strokeWidth=2;" parent="1" vertex="1">
          <mxGeometry x="442" y="831" width="121" height="60" as="geometry" />
        </mxCell>
        <mxCell id="kr2dUUyB6yCCj8srhbKk-14" value="commint成功" style="ellipse;whiteSpace=wrap;html=1;strokeWidth=2;" parent="1" vertex="1">
          <mxGeometry x="339.5" y="962" width="120" height="80" as="geometry" />
        </mxCell>
        <mxCell id="b0j0Sr7tHf7GI-plVS5E-3" value="" style="edgeStyle=orthogonalEdgeStyle;rounded=0;orthogonalLoop=1;jettySize=auto;html=1;" edge="1" parent="1" source="b0j0Sr7tHf7GI-plVS5E-1" target="b0j0Sr7tHf7GI-plVS5E-2">
          <mxGeometry relative="1" as="geometry" />
        </mxCell>
        <mxCell id="b0j0Sr7tHf7GI-plVS5E-1" value="开始commit" style="strokeWidth=2;html=1;shape=mxgraph.flowchart.start_1;whiteSpace=wrap;" vertex="1" parent="1">
          <mxGeometry x="360" y="1210" width="100" height="60" as="geometry" />
        </mxCell>
        <mxCell id="b0j0Sr7tHf7GI-plVS5E-5" value="" style="edgeStyle=orthogonalEdgeStyle;rounded=0;orthogonalLoop=1;jettySize=auto;html=1;" edge="1" parent="1" source="b0j0Sr7tHf7GI-plVS5E-2" target="b0j0Sr7tHf7GI-plVS5E-4">
          <mxGeometry relative="1" as="geometry" />
        </mxCell>
        <mxCell id="b0j0Sr7tHf7GI-plVS5E-2" value="填写提交信息" style="whiteSpace=wrap;html=1;strokeWidth=2;" vertex="1" parent="1">
          <mxGeometry x="350" y="1314" width="120" height="60" as="geometry" />
        </mxCell>
        <mxCell id="b0j0Sr7tHf7GI-plVS5E-7" value="" style="edgeStyle=orthogonalEdgeStyle;rounded=0;orthogonalLoop=1;jettySize=auto;html=1;" edge="1" parent="1" source="b0j0Sr7tHf7GI-plVS5E-4" target="b0j0Sr7tHf7GI-plVS5E-6">
          <mxGeometry relative="1" as="geometry" />
        </mxCell>
        <mxCell id="b0j0Sr7tHf7GI-plVS5E-4" value="点击”提交“按钮" style="whiteSpace=wrap;html=1;strokeWidth=2;" vertex="1" parent="1">
          <mxGeometry x="350" y="1416" width="120" height="60" as="geometry" />
        </mxCell>
        <mxCell id="b0j0Sr7tHf7GI-plVS5E-9" value="扫描结束" style="edgeStyle=orthogonalEdgeStyle;rounded=0;orthogonalLoop=1;jettySize=auto;html=1;" edge="1" parent="1" source="b0j0Sr7tHf7GI-plVS5E-6" target="b0j0Sr7tHf7GI-plVS5E-8">
          <mxGeometry relative="1" as="geometry" />
        </mxCell>
        <mxCell id="b0j0Sr7tHf7GI-plVS5E-6" value="代码扫描" style="whiteSpace=wrap;html=1;strokeWidth=2;" vertex="1" parent="1">
          <mxGeometry x="350" y="1506" width="120" height="60" as="geometry" />
        </mxCell>
        <mxCell id="b0j0Sr7tHf7GI-plVS5E-11" value="" style="edgeStyle=orthogonalEdgeStyle;rounded=0;orthogonalLoop=1;jettySize=auto;html=1;" edge="1" parent="1" source="b0j0Sr7tHf7GI-plVS5E-8" target="b0j0Sr7tHf7GI-plVS5E-10">
          <mxGeometry relative="1" as="geometry" />
        </mxCell>
        <mxCell id="b0j0Sr7tHf7GI-plVS5E-8" value="提交成功" style="whiteSpace=wrap;html=1;strokeWidth=2;" vertex="1" parent="1">
          <mxGeometry x="350" y="1601" width="120" height="60" as="geometry" />
        </mxCell>
        <mxCell id="b0j0Sr7tHf7GI-plVS5E-13" value="" style="edgeStyle=orthogonalEdgeStyle;rounded=0;orthogonalLoop=1;jettySize=auto;html=1;" edge="1" parent="1" source="b0j0Sr7tHf7GI-plVS5E-10" target="b0j0Sr7tHf7GI-plVS5E-12">
          <mxGeometry relative="1" as="geometry" />
        </mxCell>
        <mxCell id="b0j0Sr7tHf7GI-plVS5E-10" value="获取扫描结果&lt;br&gt;及提交ID" style="whiteSpace=wrap;html=1;strokeWidth=2;" vertex="1" parent="1">
          <mxGeometry x="349.5" y="1690" width="120" height="60" as="geometry" />
        </mxCell>
        <mxCell id="b0j0Sr7tHf7GI-plVS5E-12" value="提交信息至服务端" style="whiteSpace=wrap;html=1;strokeWidth=2;" vertex="1" parent="1">
          <mxGeometry x="350" y="1779" width="120" height="60" as="geometry" />
        </mxCell>
      </root>
    </mxGraphModel>
  </diagram>
</mxfile>
